<svg width="45" height="45" viewBox="0 0 45 45" fill="none" xmlns="http://www.w3.org/2000/svg">
<path fill-rule="evenodd" clip-rule="evenodd" d="M40.7757 38.4825L31.6407 29.3494C31.4902 29.1989 31.3116 29.0796 31.115 28.9982C30.9185 28.9167 30.7078 28.8748 30.495 28.8748C30.2823 28.8748 30.0716 28.9167 29.875 28.9982C29.6785 29.0796 29.4999 29.1989 29.3494 29.3494C29.199 29.4998 29.0796 29.6784 28.9982 29.875C28.9168 30.0716 28.8749 30.2822 28.8749 30.495C28.8749 30.7078 28.9168 30.9184 28.9982 31.115C29.0796 31.3116 29.199 31.4902 29.3494 31.6406L38.4825 40.7756C38.7866 41.0797 39.1991 41.2505 39.6291 41.2505C40.0591 41.2505 40.4716 41.0797 40.7757 40.7756C41.0797 40.4715 41.2506 40.0591 41.2506 39.6291C41.2506 39.199 41.0797 38.7866 40.7757 38.4825Z" fill="#F9F9F9"/>
<path fill-rule="evenodd" clip-rule="evenodd" d="M7.21502 20.1806C7.21502 16.7419 8.58104 13.4441 11.0126 11.0125C13.4441 8.58102 16.7419 7.215 20.1806 7.215C21.8833 7.215 23.5693 7.55037 25.1424 8.20195C26.7154 8.85354 28.1448 9.80858 29.3487 11.0125C30.5527 12.2165 31.5077 13.6458 32.1593 15.2189C32.8109 16.792 33.1463 18.478 33.1463 20.1806C33.1463 21.8833 32.8109 23.5693 32.1593 25.1424C31.5077 26.7154 30.5527 28.1447 29.3487 29.3487C28.1448 30.5527 26.7154 31.5077 25.1424 32.1593C23.5693 32.8109 21.8833 33.1463 20.1806 33.1463C16.7419 33.1463 13.4441 31.7802 11.0126 29.3487C8.58104 26.9172 7.21502 23.6193 7.21502 20.1806V20.1806ZM3.97314 20.1806C3.9729 22.3091 4.39195 24.4168 5.20637 26.3833C6.02078 28.3498 7.21461 30.1366 8.71966 31.6416C10.2247 33.1467 12.0115 34.3405 13.978 35.1549C15.9445 35.9693 18.0522 36.3884 20.1806 36.3881C22.3091 36.3884 24.4168 35.9693 26.3833 35.1549C28.3498 34.3405 30.1366 33.1467 31.6416 31.6416C33.1467 30.1366 34.3405 28.3498 35.1549 26.3833C35.9693 24.4168 36.3884 22.3091 36.3881 20.1806C36.3884 18.0522 35.9693 15.9445 35.1549 13.978C34.3405 12.0115 33.1467 10.2247 31.6416 8.71965C30.1366 7.21459 28.3498 6.02077 26.3833 5.20635C24.4168 4.39193 22.3091 3.97288 20.1806 3.97313C18.0522 3.97288 15.9445 4.39193 13.978 5.20635C12.0115 6.02077 10.2247 7.21459 8.71966 8.71965C7.21461 10.2247 6.02078 12.0115 5.20637 13.978C4.39195 15.9445 3.9729 18.0522 3.97314 20.1806V20.1806Z" fill="#F9F9F9"/>
</svg>
